<?xml version="1.0" encoding="utf-8"?>
<!-- Generator: Adobe Illustrator 19.0.0, SVG Export Plug-In . SVG Version: 6.00 Build 0)  -->
<svg version="1.1" id="Layer_1" xmlns="http://www.w3.org/2000/svg" xmlns:xlink="http://www.w3.org/1999/xlink" x="0px" y="0px"
	 viewBox="0 0 283.5 283.5" style="enable-background:new 0 0 283.5 283.5;" xml:space="preserve">
<style type="text/css">
	.st0{fill:#FFFFFF;}
</style>
<g id="XMLID_3_">
	<g id="XMLID_42_">
		<g id="XMLID_46_">
			<g id="XMLID_47_">
				<g id="XMLID_48_">
					<path id="XMLID_100_" class="st0" d="M272.2,115.2c0-0.4,0.1-0.5,0.1-0.6c0-0.4,0-0.7-0.1-1.1L272.2,115.2z"/>
					<path id="XMLID_72_" class="st0" d="M277.5,213.4c0,0.1,0,0.1,0,0.2c0.1-0.2,0.1-0.4,0.2-0.5C277.6,213,277.6,213,277.5,213.4z
						"/>
					<path id="XMLID_71_" class="st0" d="M276.2,188.7c0.1-0.4,0.1-0.9,0.2-1.2C276.3,187.5,276.3,188,276.2,188.7z"/>
					<path id="XMLID_70_" class="st0" d="M271.9,128.7c0.1-1.1,0.2-2.2,0.3-3.4C272,125.7,271.8,127,271.9,128.7z"/>
					<path id="XMLID_69_" class="st0" d="M276,192c0.1-0.9,0.2-2.3,0.2-3.3C276.1,189.7,276,190.8,276,192z"/>
					<path id="XMLID_68_" class="st0" d="M269.9,264.4c0.4-0.3,0.8-0.7,1.3-1c0.4-0.4,0.8-0.8,1.3-1.3c0-0.1,0.1-0.3,0.1-0.3
						c0,0-0.6,0.7-1.2,1.3C270.6,263.8,269.9,264.4,269.9,264.4z"/>
					<path id="XMLID_67_" class="st0" d="M250,256c-2.2,0.1-2.6,0.2-2.2,0.4C248.1,256.2,248.8,256.1,250,256z"/>
					<path id="XMLID_66_" class="st0" d="M196,256c0.4,0,0.8-0.1,1.2-0.1C196.3,255.9,195.8,255.9,196,256z"/>
					<path id="XMLID_65_" class="st0" d="M227.1,258.7c0.1,0.1,0.2,0.1,0.4,0.2C227.7,258.8,227.6,258.8,227.1,258.7z"/>
					<path id="XMLID_64_" class="st0" d="M13.6,85.9l-0.2,1.3C13.5,87,13.6,86.5,13.6,85.9z"/>
					<path id="XMLID_63_" class="st0" d="M18.1,11.5c0.2-0.2,0.4-0.4,0.6-0.7C18.6,11.1,18.4,11.3,18.1,11.5z"/>
					<path id="XMLID_62_" class="st0" d="M20.3,9.4c-0.6,0.5-1.1,0.9-1.6,1.4C19.4,10.2,20,9.7,20.3,9.4z"/>
					<path id="XMLID_61_" class="st0" d="M266.6,265.6c-1,0.8-3,1.9-4.8,2.6c-1.8,0.7-3.5,0.9-3.5,1.2c0,0,0.8-0.1,2-0.3
						c0.6-0.1,1.3-0.3,2-0.5c0.7-0.2,1.5-0.5,2.2-0.8c1.5-0.6,2.9-1.4,3.9-2.1c0.5-0.4,0.9-0.7,1.2-0.9c0.3-0.2,0.4-0.4,0.4-0.4
						c-1.8,1.4-3.4,2-4.2,2.2c-0.4,0.1-0.5,0-0.4-0.1C265.5,266.4,265.9,266.1,266.6,265.6z"/>
					<path id="XMLID_60_" class="st0" d="M27.4,243.7c0-2.7-0.1-4.1-0.2-4.8c0.1,1.6,0.1,3.3,0.2,4.9L27.4,243.7z"/>
					<path id="XMLID_59_" class="st0" d="M23.8,181.4c0,0.1,0,0.2,0,0.2c0-0.1,0-0.2,0-0.4L23.8,181.4z"/>
					<path id="XMLID_58_" class="st0" d="M27.8,248.1c0.1,0.1,0.1,0.2,0.2,0.3C28,248,27.9,248,27.8,248.1z"/>
					<path id="XMLID_57_" class="st0" d="M270.7,101.2c0-0.4,0-0.7-0.1-1.2C270.6,100.6,270.7,100.9,270.7,101.2z"/>
					<path id="XMLID_56_" class="st0" d="M23.3,185.5l0.6-4.1c-0.1-0.6-0.2-1.1-0.3-1.9C23.1,178.8,23.1,183.6,23.3,185.5z"/>
					<path id="XMLID_55_" class="st0" d="M27.8,248.1c0-0.1-0.1-0.1-0.1-0.2c0-0.1-0.1-0.1-0.1-0.3c0-0.3-0.1-0.7-0.1-1.1
						c-0.1-0.8-0.1-1.7-0.2-2.7l-0.3,2.3c0,0.7,0,1.3,0,1.7c0,0.2,0.1,0.3,0.1,0.5c0,0.2,0.2,0.3,0.2,0.3
						C27.6,248.5,27.7,248.2,27.8,248.1z"/>
					<path id="XMLID_54_" class="st0" d="M254.7,257.7c-2.6-0.3,6.4-0.8,1-1l-5.3,0.7c0.9-0.3-2.1-0.7-2.7-1c-2.1,0.7,6.8,1.1,0.5,2
						c-1.4,0.4-6.2,0.3-8.5,0.2c5.3,0.1-0.1,0.6-2.3,0.9c-3.3-0.3-8.5-0.1-10-0.6c-0.5,0.2-3,0.2-4.8,0.2l-0.2-0.2
						c-3.9,0.2,1.3,0.2,0.3,0.5c-2.8,0.1-7.3-0.4-11.9-0.4c4.6,0,8.5-0.3,11.8-0.6c-8.4-0.4,1.5-1.1,3.4-1.7
						c-6.8,0.3-9.4,0.7-14.9,1.1c-6.7-0.5,0.5-1.6,2.2-1.7c-6.1,0.3-12.6,1.1-15.9,1.3c4.6-0.9,3.8-1.2,7.9-1.9
						c-4.9-0.5-5.9,0.1-8.3,0.5c1.4-0.1,3.5-0.1,4,0c-5.9-0.1-4.9,1.3-7.9,1.9c-4.3-0.4-12.6-0.5-12-1.3l0.1,0.8
						c-5.1,0.2-2.6-0.4-3.4-0.7c-1.9,0.6,0.5,1.4-8.1,1.6c1.3-1.4-7.6-0.1-7.4-1.4c-4,0.1-5.8,0.8-10,0.6c-4.6-0.7,6.3-1.7,8.8-1.5
						c5.8,0-0.8,0.6,1.6,0.6l5.5-0.4c-3.1-0.3-9.1-0.6-8.4-1.1c-5.6,0.3,4.5,0.6-1.6,0.9l-3.7-0.3c-6.1,0.3,1.3,1-6.7,1.1
						c5.4-0.6-8.7,0-8.2-0.9c-0.3,1.1-14.4,0.2-16,1.1l4.2,0.3l-0.9-0.5c4.6,0,8.5-0.3,13.2-0.1c-3.8,0.4,1.3,1-3.1,1.3
						c-8.2,0.7-2.2-0.6-3.3-0.6l-6.5,0.6l4.4,0.5c-5.1,0.2-12,0.3-19,0.2c-10.4-0.7,1.3-0.6-6.1-1.3c-3.3,0.3-2.5,0.5-7.2,0.4
						c2.5,0.3,4.5-0.1,6.3-0.1c2.3,0.7-8.4,0.3-8,1c-1.9-0.3-1.6-0.6,0-0.9c-7.9,0.3-15.6,0.2-18.5-0.7l-3.4,0.9
						c-13.6-0.3,9.3-0.8-2.1-1.3c-4.7-0.1-9.3,0-11.4,0.3l4.1,0c-3.1,0.5-2.9,0.8-7.9,1.1c-3.5-0.1-1.6-0.7-5.9-0.2
						c-10.8-0.5-3.3-1.3-1.6-2.1c-7.9-0.5,4-1.7-1.3-1.3l1.4,0.2l-8.2,1.2c7.7,1,3-0.9,6.1,0.1l4.6,0.1c-1.4,0.5-12,0.1-13,0.7
						c-0.1-0.3,1-1,5.8-1l-2.8-1.1c-2.8-0.1-4.6,0.6-6.1,0.1c-4.1-0.7,6-1.1-4-1.4c-1-0.1-1.7-0.3-2.3-0.5c-0.3-0.1-0.5-0.2-0.8-0.3
						c-0.2-0.1-0.5-0.2-0.7-0.3c-0.4-0.2-0.8-0.4-1.2-0.7c-0.4-0.3-0.8-0.9-1-1.6c-0.1,0.4,0.2,1.2,0.9,2.1
						c-0.5-0.3-0.5-0.1-0.5,0.1c0,0.1-0.1,0.2-0.2,0.1c-0.1,0-0.4-0.2-0.7-0.6c0-0.7-0.4-1.9-0.4-3.4l0-0.3l0-0.1l0-0.3
						c0-0.4,0-0.8,0-1.2c0-0.8,0-1.6,0-2.4c0-1.6,0-3.2,0-4.6c0.4,1.5,0.8-2.2,1-0.4c-0.1-3-0.2-5.7-0.5-7c-0.5,12-0.6-11.6-1.3-2.3
						c0-9.3,0.7-11.1,1.1-16.9c0.2,0.4,0.5,10.8,0.8,2.5c-0.8-9.5-1.1,1.7-2-5.7l-0.3,6c-0.9,0.8-0.2-10.4-0.4-11.9
						c0.2-3.7,0.3,5.1,0.9,1.5c0.2-5.5-0.4-8.3,0-11.8c0.6,3.4,0.4,1.2,0.9,5.1c0-12.9,0.7,0.7,1.1-9.2c-0.1-3.1-0.7-1.1-0.5-6.2
						c-0.7,3-0.9,2.6-0.9,10.8c-1-2.9,0.2-10.8-0.4-16.5c-0.1,4.6-0.2,1.4,0,6.4c-0.8,0.7-0.9,2.5-1.7-2c0.2,5.3,1.1,7.6,0.9,15.2
						c-0.8,2.1-0.7-9.3-1.7-9.4c-0.6-3.8-0.1-13,0.3-17.2c-0.7-7.4-0.7-16.5-1.7-22.1c0.3-5.3-0.6-18.7-0.3-28.8
						c0.5-1.5,0.3-12.4,0.8-6.2c-0.2-0.9-0.3-9.2-0.7-7.1c0.2,0.9,0,1.8,0.1,3.6l-0.6-1.6c0.3-4.9-0.5-10.3-0.2-15
						c0.5-1.5,0.3,8.8,0.9,5.6c-0.9-4.5-1.3-22.7-0.9-28.6c0.1-3.9,0.9-4.4,1-6l-0.1-6.6c0.2-0.8,0.5-0.9,0.8-2.1
						c0.2-3.2-0.1-5.4-0.2-7.4c0.5-8.6,1.1-4,1.6,0.4l-0.3,4.8c0.3,3.5,0.2,8.6,0.9,5.6c-0.1-2.5-0.4-2.4-0.5-3.2l0.4-2.8
						c-0.3-2.9-0.5-10.8-1-9.9c0.4-5.8-0.1-12.5,0.3-17.6c-0.3,3.5-0.6-0.9-1,0.1l-0.2,6.2c0-1.2-0.1-2.6-0.1-4
						c0-0.7-0.1-1.5-0.1-2.2c0-0.4,0-0.6,0-0.9c0-0.3,0-0.6,0.1-0.9c0.1-1.1,0.4-2.3,0.9-3.2c0.2-0.5,0.5-0.9,0.8-1.3
						c0.3-0.4,0.6-0.8,1-1.1c0,0.6-0.1,0.6,1.4-0.3c-1,0.7-0.1-0.6,0.9-1.4c0.2-0.2,0.5-0.4,0.6-0.5c0.2-0.1,0.3-0.2,0.3-0.3
						c0-0.1-0.5-0.1-1.8,0.6c-0.8,0.7-1.5,1.5-2.1,2.3c-0.6,0.9-1.2,1.9-1.7,3.1c-0.6,0.7-0.7,0.1-0.4-1.1c0.3-1.2,1.2-2.8,2-3.8
						c0.3-0.3,0.6-0.6,1-1c0.4-0.3,0.8-0.7,1.3-1c0.9-0.7,2.1-1.2,3.3-1.6c0.6-0.2,1.3-0.3,1.9-0.4c0.7-0.1,1.3-0.1,2.1-0.1
						c1.5-0.1,2.9-0.1,4.2-0.2c3.2,0.2,4.2,1,9.7,0.5c-7-0.7,6.7-1.2,8.5-1.9c5.3,0.3,8.7-0.6,12.9,0c-2.2,0.3-10.4,0.2-12.5,0.8
						c-0.3,0.5,1.8,1.3-6.3,1.6c9.7,0.3,5.7-0.4,10.2-0.6l-3.3,0.1c1.5-0.2-1.3-0.6,1.6-0.6c11.4,0.2,13.4,0.7,21.1,1.4
						c-1.7-0.4,1.8-0.7,3.6-0.7c7.4,0.5-0.1,1.1,4.5,1.9c2.6-0.5,7.6-0.3,5.9-0.7c2.9,0,1.4,0.2,3.5,0.3c1.9-0.4,4.1-0.7,8.2-0.7
						c-0.4,0.2-0.9,0.6-4.8,0.4c4.4,0.2,6,1,4.1,1.4L98,15.2c-3.2,0.5,6.7,0.2,6.4,0.7c-3.1,0.1-5.5-0.2-7.5-0.1c2,0.5,8.2,0,11.8,0
						c5.7,0.1,3.6,0.6,3.7,0.9c9.7-0.9-11.2-1-2.2-1.8c3.4-0.6,12.1-0.5,18.2-0.7c-5.2-0.7,0.6-1,6.9-1.3c-8.2,0-2.1-0.8-11.7-0.4
						l-0.2-0.6c4.1,0,8.9,0.3,13,0.3c-0.9,0.2,0.1,0.3-1.2,0.4l12.2-0.3l-1.2,0.4c7.5,0.1,16.8,0.5,21.2,0.3c-3.6,0.1-6.8-0.5-3-0.7
						c2.2-0.3,6.2-0.5,9.6-0.5c1.8,0.7,14.8,0.6,6.6,1.3c10.6-0.3,6.7-0.5,16.8-0.9l-6.8,0.2c-0.9-0.5,4.8-1.4-1.7-1.7
						c7.6-0.3,2.8-1.3,13-1.4c4.1,0.3-1.2,1.1-7,1.2c2.9,0,5.5,0.3,8.5,0c2.2,0.4-5.4,0.8-5.1,0.9c5.2,0-0.1-0.3,4.8-0.4
						c8.7-0.6,5.5,0.9,13.8,0.5c-1.8,0-5-0.1-2.9-0.4c11.1,0,6.2-0.5,14.3-0.8c4.6,0.8,2.6,1.6,9.9,1.8l-4.1,0
						c2.9,0.4,6.1,0.6,9,0.5c3.8-0.2,7.4-0.4,11-0.6c1.8-0.1,3.4-0.2,5.1,0.1c1.6,0.3,3.2,1,4.7,1.9c2.9,1.8,5.2,4.8,6.1,8.4
						c0.1,0.5,0.2,0.9,0.3,1.4c0,0.5,0.1,0.9,0.1,1.4c0,0.9,0.1,1.8,0.1,2.8c0.1,1.9,0.2,3.8,0.3,5.8l-0.2-5.6
						c0.3-1.9,0.3,4.7,0.6,4.6l-0.3,3.5c0.6,1,0.5-7.9,1.1-5.8c-0.1,0.5-0.1,1.6,0,2.3l0.2-3.2c-0.2,7.3,0.8,13.1-0.1,18.7
						c-0.1-14.3-1.6-2.2-1.9-16.2c0.2,7.4-0.6,1.3-0.8,2.1c-0.1,3.9,0.4,1.9,0.2,6.3c-0.4-0.1-0.8-9.5-1.1-5.3
						c0.6,0.5,0.5,4.4,0.9,6.3c-0.2,3.2-0.4-0.1-0.6,1.3c0,1.8,0.3,2.9,0.2,4.5l-0.4-1.2c-0.5,9,0.6,2.8,0.4,13
						c0.5,0.3,0.4-2.9,0.3-7.1c1.1-2.2,1.2,13.2,2.4,12.4c0.2,9.7-0.5-2.6-0.8,5.7c-0.8,4.6-0.8-6.1-1.4-8.2l-0.5,8.6
						c-1-2.9-0.7-8.2-1.6-9.7c0,6.4,0.2,5.6,0.5,12.1c0.7-10.5,0.6,4.6,1.6-1.4c-0.3,4.8-0.5,3.3-0.5,10.4c-0.2-4.5-0.8-0.2-0.8-6.1
						c0.1,9.5,0.3,6.9,0.4,16.5c0.7,3,0.9-9.6,1.4,1.8c0,2.5-0.3,2-0.3,0.5c-0.3,8.2,0.9-1.7,1.2,3.5c0.1,3.6-0.2,4.9-0.4,3.4
						c0.4,5.4,0.8,2.4,1,6l0.1-1.6c0.2,1.5,1.2-2.7,1.2,5.1c0,5.6-0.4,3.9-0.6,4c0.2,4.4,0,7.7-0.2,10.7c0.1-0.3,0.3,0,0.3,1.4
						c0.2,7.4-0.6,4.3-0.7,7c-0.3,10.6,1.3-1.3,1.3,10.5l0.2-13.7c0.3,0.6,0.8,0.9,0.8-2.1c-0.5-0.3-0.9-5.1-0.9-9.7
						c0.6-1.3,0.7,12.3,1.3,4.6c-0.1,2.8,0.1,6.6,0,10c-0.6-3.4-0.1,11-0.8,5c0.2,15-0.3,17.1,0.2,30.8c-0.4-1.2-1.4-10-1.1-17.1
						l0.4-0.6c-0.4-8.9-0.4,7-1,5.3c1,11-0.5,24.5-0.1,38c0.3-2.4,0.5,0.3,0.8,0.9c-0.1-5.4-0.2-4.5,0.2-8.5c0.4,0.8,0.3,4,0.6,5.7
						c0.5,1.4,0-4.1,0.3-6c0.3,5.2,0.3,4.7,0.7,7.7c-0.4,2.8-0.6,2.5-1.1,4.7c-0.1,12.8,0.8,11.3,0.6,21.6c0.1-5.7-0.5,2.7-0.3-3.5
						l-0.1,3.4c-0.7-8.9-0.7-24.1-1.9-22.6c0.1,7.2,0.8,12.5,0.8,21.3l-0.2-0.4c0,6.4,0.3-0.1,0.5,1.4c0.4,7.1-1.1,9.2-0.3,14.2
						l0.2-7.3c0.5,5.5,0.1-1.6,0.9-0.3c0.3,4.9,0.3,11.6,0.4,18.8c0,0.5,0,0.9,0,1.4c0,0.2,0,0.4,0,0.7l0,0.9c0,0.6-0.1,1.2-0.2,1.8
						l-0.1,0.9l-0.2,0.9c-0.6,2.3-1.6,4.6-3.1,6.5c-2.9,3.9-7.2,6.6-11.8,7.5c2.7-0.3,4.4-0.9,6.1-1.7c0.9-0.5,1.8-1,2.7-1.7
						c1-0.7,2-1.7,3.2-3.1c-0.3,0.8-0.7,1.5-1.1,2.1c-0.4,0.6-0.8,1-1,1.4c-0.4,0.6-0.2,0.7,1.5-0.2c0,0,0.4-0.4,1-1.1
						c0.6-0.6,1.3-1.6,2-2.5c1.4-2,2.2-4.2,2.2-4.2l1,0.2c-0.9,2.6-2.4,4.9-4.1,6.6c-0.1,0.3-0.8,1.3-1.9,2.3c-1.1,1-2.6,2.1-4.3,3
						c-3.3,1.8-6.9,2.3-7.2,2.6c0,0,0.5-0.1,1.3-0.2c0.8-0.2,1.8-0.4,2.8-0.8c2-0.7,3.9-1.9,3.9-1.9c1-0.4,1.1-0.5,0.8-0.2
						c-0.4,0.3-1.2,0.9-2.5,1.5c-1.2,0.6-2.9,1.3-4.6,1.7c-0.9,0.2-1.7,0.3-2.6,0.5c-0.9,0.1-1.7,0.1-2.5,0.2c0.7,0.1,1.6,0.1,2.5,0
						c1-0.1,2-0.2,3.1-0.5c2.2-0.5,4.7-1.5,7.1-3.2c2.3-1.6,4.5-3.7,6.2-6.3c1.7-2.6,2.9-5.6,3.5-8.6c-0.2,0.4,0-2.5-0.3-3.9
						c0-0.2,0-0.3-0.1-0.5c0-0.1-0.1-0.1-0.1-0.2c-0.1-0.1-0.1,0-0.1,0.1c-0.1,0.5-0.1,2-0.7,4.8c-0.1-0.1-0.1-0.5,0-1.3
						c0-0.4,0.1-0.8,0.1-1.3c0-0.5,0-1,0-1.6c0-0.6,0-1,0-1.4c0-0.4,0-0.8-0.1-1.2c0-0.8,0-1.7,0-2.4c0.2,1.5,1.1-5.8,1.4,1.2
						c-0.5-6.7,0-3-0.2-10.4c0.3,1,0-13,0.8-12.1c-0.4-2.4-1.2,0.1-1.3-8.5c-0.6,2.1-0.7,11.7-1.3,5.2l0.4,4.2
						c-0.3,6-0.6-1.6-0.8,6.2c0-2.3-0.3-7,0.1-8c-1.2,2-0.6-11.6-1.5-12c0.4-1.7,0.4-4,0.3-8.3c0.3,0.6,0.7-1.8,0.9,1.5
						c-0.1,2.8,0,4.8-0.2,7.8c1.2-1.7,0.4-11.1,0.6-18.3c-0.1,1-0.2,1.3-0.4-0.7c0.2-4.4,0.4-14,1-11.2l-0.2-22
						c0.3-0.1,0.1,3.1,0.2,4.5l0-12.3c0.4-2.9,0.4,4.2,0.8,5.4l0-8.9l0.4,1.2c-0.3-2.2-0.4-12.4,0.2-14.8c-0.2-9.7-1.5-9.5-0.9-22.7
						c0.6,0.5,0.2,7.4,0.6,10.5c0.2-2.6-0.2-10.4,0.4-11.7c-0.4-9.4-1.5-8.4-2.1-13c0-7.7,0.5-0.8,0.7-1.2c0-2.3-1.1-6-0.3-8.1
						c-0.5-3.7-1-5.8-1.2-0.3c0-4.1-0.3-9.9-0.6-10.9c0.9,3.3,0.4-4.7,1.1-5.1c0.2-6.2,0.4-19.9-0.6-25.7l1,1.7l-0.1-7.2
						c0.6-5.4,0.6,6.4,0.7,10c0.1-4.9,0.1-9,0.1-13c0-2,0-3.9,0-6c0-1,0-2,0-3.1c0-0.5,0-1.1,0-1.6c0-0.3,0-0.6,0-0.8
						c0-0.4,0-0.8-0.1-1.2c0,0.5,0,0.9,0,1.2c0,0.3-0.1,0.4-0.1,0.5c-0.1,0.2-0.1,0.3-0.2,0.4c-0.1,0.1-0.2,0-0.4,0.6
						c-0.1-0.4-0.1-0.8-0.1-1.2c0-0.6-0.1-1.1-0.1-1.7c-0.1-1.2-0.3-2.5-0.7-3.8c-0.7-2.5-1.8-4.9-3.2-6.6c-0.2-0.5-0.2-0.7,0.1-0.4
						c0.2,0.2,0.4,0.4,0.8,0.8c0.3,0.4,0.7,1,1.2,1.8c0,0-1.1-1.9-2.5-3.6c-1.4-1.7-3.2-3-3.2-3c0.5,0-0.2-0.7,0-0.7
						c0.1,0,0.4,0.1,1.1,0.6c0.7,0.5,1.8,1.4,3.3,3.1c0,0-0.3-0.4-0.9-1c-0.3-0.3-0.6-0.6-1-1c-0.4-0.3-0.8-0.7-1.2-1
						c-1.6-1.4-3.5-2.3-3.5-2.3c-2-1.1-3.1-1.5-3.5-1.7c-0.3-0.2,0.1-0.1,0.9,0.1c0.8,0.2,1.9,0.7,2.9,1.1c1,0.5,1.9,1,2.4,1.4
						c0,0-0.7-0.6-2-1.3c-1.2-0.7-3-1.6-4.8-2.1c-0.9-0.3-1.9-0.5-2.7-0.6c-0.4-0.1-0.9-0.1-1.3-0.2c-0.4,0-0.8-0.1-1.2-0.1
						c-0.4,0-0.7,0-1,0c-0.2,0-0.4,0-0.5,0c-0.3,0-0.4,0-0.4,0c-3.5,0.3,2,0.5-4.8,0.7c-9-0.5-20.6-0.3-30.8-0.5l7.2,0.6
						c-6.2-0.2-5,0.8-6.9,1.3c-5.7-0.1-13.4,0-18.3-0.3c5.5-0.5,3.2-1.2-1.9-1.6c-11.6-0.1-8.8,1-15.2,1.4c5-1.2-8.1-0.4-7-1.1
						c-14.8,0-29.6,0.5-44.8,0.5c0.3,0.2,4.7,0.4,2,0.5c-5.6,0.2-8.3-0.3-9-0.5c-7.2,0.1-11.4,0.5-13.8,0.9c3.1-0.1,3.4,0.1,2.8,0.4
						c-7.2,0.1-5.2-0.7-12.1-0.1c-1.8-0.7,7.6-0.3,7-1C103,4,99,4.3,94.3,4.6c-1.1-0.4,4.3-0.1,0.8-0.4c-9.9,0.3-21.8,0.7-29.2,1
						l-2-0.5C59.1,4.6,56,4.8,53.8,5c-2.6-0.2-0.6-0.4,1.9-0.4C49.3,4.5,41.5,5,37.9,5c0.6-0.3,3.6-0.1,4.7-0.3c-2,0-4.1,0-6.3,0.1
						c-1.1,0-2.2,0.1-3.3,0.1c-1.5,0.1-3.1,0.3-4.5,0.7c-2.9,0.8-5.4,2.2-7.5,3.7c-2,1.5-3.6,3.3-4.8,4.7c0.5-0.8,1.1-1.8,1.8-2.5
						c-2.9,3.1-4.7,7.1-5.1,11.1c-0.1,0.5-0.1,1-0.1,1.5l0,0.8l0,0.4l0,0.3l0,2.1c0,1.4,0,2.8,0.1,4.2c0.1,5.7,0.2,11.5,0.3,17.9
						c-0.7,11.8,0.9,3.8,0.8,15.4c-1.5,0.1-0.1,15.8-0.4,20.7l0.2-1.6c0.6,5.7,0.1,13.6-0.3,17.6c-0.1,8.7-0.1,21.6,0.5,30.3
						l-0.3-1.7c0.4,7.1-0.1,11.6,0.3,18.8c-0.1-0.2-0.3-2.9-0.4-0.1c-0.2,17.2-0.1,34.6,0.1,52c0.1,8.7,0.2,17.4,0.2,26
						c0,4.3,0,8.7,0.1,13c0,2.2,0,4.3,0,6.5l0,0.8l0,0.4l0,0.5c0,0.7,0.1,1.5,0.2,2.2l0.2,1.1l0.3,1.1c0.2,0.7,0.4,1.4,0.7,2.1
						c2,5.2,6.4,9.5,11.9,11.3c0.7,0.2,1.4,0.4,2.1,0.6c0.7,0.1,1.4,0.3,2.1,0.3l1.1,0.1l0.5,0l0.4,0l1.6,0c2.1,0,4.3,0,6.5,0
						c8.7,0,17.5,0.1,26.5,0.1c17.9,0,36.4,0,54.8,0c36.8-0.1,73.5-0.3,105.8-0.9C228.6,266.3,259.3,260.2,254.7,257.7z"/>
					<path id="XMLID_53_" class="st0" d="M269.8,94.4c0-0.3,0-0.6,0-0.9C269.8,93.8,269.8,94.1,269.8,94.4z"/>
					<path id="XMLID_52_" class="st0" d="M192.7,10.7c0.7,0,1.5,0,2.2,0C194.1,10.6,193.4,10.6,192.7,10.7z"/>
					<path id="XMLID_51_" class="st0" d="M60.8,12.7l2.8-0.1C62.4,12.7,61.5,12.7,60.8,12.7z"/>
					<path id="XMLID_50_" class="st0" d="M23.5,175.5c0.4-1,1.2,4.4,1.6-0.3c0-16.4-1.7-7-1.6-23.8l-0.5,8.6
						c0.8-0.5,1.2,5.5,1.2,12.1l-0.5,2c-0.2-1.1-0.3-2.3-0.4-3.6C23.3,172.9,23.7,172.5,23.5,175.5z"/>
					<path id="XMLID_49_" class="st0" d="M23.3,169.9c0,0.1,0,0.3,0,0.4c0,0.1,0,0.1,0,0.2C23.3,170.3,23.3,170.1,23.3,169.9z"/>
				</g>
			</g>
		</g>
	</g>
</g>
</svg>
